<?xml version="1.0" standalone="no"?><!DOCTYPE svg PUBLIC "-//W3C//DTD SVG 1.1//EN" "http://www.w3.org/Graphics/SVG/1.1/DTD/svg11.dtd"><svg t="1500883763736" class="icon" style="" viewBox="0 0 1024 1024" version="1.1" xmlns="http://www.w3.org/2000/svg" p-id="4363" xmlns:xlink="http://www.w3.org/1999/xlink" width="200" height="200"><defs><style type="text/css"></style></defs><path d="M567.440683 704.364169c220.367967 2.790556 320.791144-178.524976 329.158718-192.475709l0 0 0 0 0 0 0 0c-5.579065-11.155061-105.998149-195.262172-329.158718-192.470593-25.105794-36.264948-66.949808-75.317383-139.474588-69.737294-72.525804 5.579065-122.737392 78.104869-119.948883 105.998149 2.790556 27.897374 22.317285 19.525706 22.317285 19.525706l39.052434 8.371668c0 0-61.370743 41.839921-61.370743 52.999075l0 75.31329 0 0 0 0 0 0 0 0 0 75.317383c0 13.94664 61.370743 53.000098 61.370743 53.000098l-39.052434 8.370645c0 0-19.526729-8.370645-22.317285 19.525706-2.788509 27.894304 47.424102 100.419084 119.948883 105.999173C500.491898 779.680529 542.334889 740.629117 567.440683 704.364169L567.440683 704.364169 567.440683 704.364169zM570.229193 511.88846c0-5.574972 2.791579-72.525804 80.897472-80.892355 75.31636 2.788509 80.892355 75.317383 83.683934 80.892355 0 5.580089-8.367575 78.108962-83.683934 80.897472C573.020772 584.418356 570.229193 517.468548 570.229193 511.88846L570.229193 511.88846 570.229193 511.88846zM570.229193 511.88846" p-id="4364" fill='#FFF' ></path><path d="M188.0714 470.048539c-8.366551 0-16.738219-8.367575-16.738219-16.739243l0 0c0-8.366551 8.370645-16.73515 16.738219-16.73515l80.893378 0c8.370645 0 16.738219 8.367575 16.738219 16.73515l0 0c0 8.370645-8.366551 16.739243-16.738219 16.739243L188.0714 470.048539 188.0714 470.048539 188.0714 470.048539zM188.0714 470.048539" p-id="4365" fill='#FFF'></path><path d="M146.227386 531.415189c-8.366551 0-16.73515-8.367575-16.73515-16.73515l0 0c0-8.366551 8.367575-16.739243 16.73515-16.739243L266.176268 497.940796c8.366551 0 16.739243 8.371668 16.739243 16.739243l0 0c0 8.366551-8.371668 16.73515-16.739243 16.73515L146.227386 531.415189 146.227386 531.415189 146.227386 531.415189zM146.227386 531.415189" p-id="4366" fill='#FFF'></path><path d="M207.598128 587.205842c-8.367575 0-16.739243-8.366551-16.739243-16.73515l0 0c0-8.370645 8.370645-16.738219 16.739243-16.738219l58.57814 0c8.366551 0 16.739243 8.366551 16.739243 16.738219l0 0c0 8.367575-8.371668 16.73515-16.739243 16.73515L207.598128 587.205842 207.598128 587.205842 207.598128 587.205842zM207.598128 587.205842" p-id="4367" fill='#FFF'></path></svg>